<mxfile host="app.diagrams.net" modified="2024-01-25T07:51:37.686Z" agent="Mozilla/5.0 (Windows NT 10.0; Win64; x64) AppleWebKit/537.36 (KHTML, like Gecko) Chrome/120.0.0.0 Safari/537.36" etag="wfZgUTARONH3CPXXDKOz" version="23.0.1" type="google">
  <diagram name="Page-1" id="utXEo3jkyjWKk6HsDn0n">
    <mxGraphModel grid="1" page="1" gridSize="10" guides="1" tooltips="1" connect="1" arrows="1" fold="1" pageScale="1" pageWidth="850" pageHeight="1100" math="0" shadow="0">
      <root>
        <mxCell id="0" />
        <mxCell id="1" parent="0" />
        <mxCell id="ccat_9VGCG8ta8O_mmiu-151" value="" style="rounded=0;whiteSpace=wrap;html=1;" vertex="1" parent="1">
          <mxGeometry x="-120" y="840" width="1200" height="600" as="geometry" />
        </mxCell>
        <mxCell id="ccat_9VGCG8ta8O_mmiu-4" value="P1. Order Processing" style="shape=ellipse;html=1;dashed=0;whitespace=wrap;aspect=fixed;perimeter=ellipsePerimeter;fillColor=#e1d5e7;strokeColor=#9673a6;" vertex="1" parent="1">
          <mxGeometry x="280" y="1100" width="140" height="140" as="geometry" />
        </mxCell>
        <mxCell id="ccat_9VGCG8ta8O_mmiu-5" value="&lt;b&gt;University Systems&lt;/b&gt;" style="html=1;dashed=0;whitespace=wrap;fillColor=#ffe6cc;strokeColor=#d79b00;" vertex="1" parent="1">
          <mxGeometry x="162.5" y="1310" width="140" height="80" as="geometry" />
        </mxCell>
        <mxCell id="ccat_9VGCG8ta8O_mmiu-6" style="edgeStyle=orthogonalEdgeStyle;orthogonalLoop=1;jettySize=auto;html=1;curved=1;endArrow=block;endFill=1;entryX=1;entryY=0;entryDx=0;entryDy=0;exitX=0;exitY=0.75;exitDx=0;exitDy=0;" edge="1" parent="1" source="ccat_9VGCG8ta8O_mmiu-11" target="ccat_9VGCG8ta8O_mmiu-8">
          <mxGeometry relative="1" as="geometry">
            <mxPoint x="345" y="930" as="sourcePoint" />
            <mxPoint x="505" y="1110" as="targetPoint" />
          </mxGeometry>
        </mxCell>
        <mxCell id="ccat_9VGCG8ta8O_mmiu-7" value="Account management" style="edgeLabel;html=1;align=center;verticalAlign=middle;resizable=0;points=[];" connectable="0" vertex="1" parent="ccat_9VGCG8ta8O_mmiu-6">
          <mxGeometry x="-0.4188" y="-2" relative="1" as="geometry">
            <mxPoint as="offset" />
          </mxGeometry>
        </mxCell>
        <mxCell id="ccat_9VGCG8ta8O_mmiu-8" value="&lt;font style=&quot;font-size: 10px;&quot;&gt;P4. User Account Management&lt;/font&gt;" style="shape=ellipse;html=1;dashed=0;whitespace=wrap;aspect=fixed;perimeter=ellipsePerimeter;fillColor=#e1d5e7;strokeColor=#9673a6;" vertex="1" parent="1">
          <mxGeometry x="20" y="1097.5" width="142.5" height="142.5" as="geometry" />
        </mxCell>
        <mxCell id="ccat_9VGCG8ta8O_mmiu-9" value="P3. Menu Management" style="shape=ellipse;html=1;dashed=0;whitespace=wrap;aspect=fixed;perimeter=ellipsePerimeter;fillColor=#e1d5e7;strokeColor=#9673a6;" vertex="1" parent="1">
          <mxGeometry x="530" y="1100" width="135" height="135" as="geometry" />
        </mxCell>
        <mxCell id="ccat_9VGCG8ta8O_mmiu-10" value="P2. Payment Processing" style="shape=ellipse;html=1;dashed=0;whitespace=wrap;aspect=fixed;perimeter=ellipsePerimeter;fillColor=#e1d5e7;strokeColor=#9673a6;" vertex="1" parent="1">
          <mxGeometry x="770" y="1100" width="135" height="135" as="geometry" />
        </mxCell>
        <mxCell id="ccat_9VGCG8ta8O_mmiu-11" value="&lt;b&gt;User (students and staff)&lt;/b&gt;" style="html=1;dashed=0;whitespace=wrap;fillColor=#ffe6cc;strokeColor=#d79b00;" vertex="1" parent="1">
          <mxGeometry x="420" y="880" width="160" height="80" as="geometry" />
        </mxCell>
        <mxCell id="ccat_9VGCG8ta8O_mmiu-41" style="edgeStyle=orthogonalEdgeStyle;curved=1;orthogonalLoop=1;jettySize=auto;html=1;entryX=0.5;entryY=0;entryDx=0;entryDy=0;" edge="1" parent="1">
          <mxGeometry relative="1" as="geometry">
            <Array as="points">
              <mxPoint x="620" y="1120" />
              <mxPoint x="65" y="1120" />
            </Array>
            <mxPoint x="620" y="1170" as="sourcePoint" />
          </mxGeometry>
        </mxCell>
        <mxCell id="ccat_9VGCG8ta8O_mmiu-42" value="Makes Request" style="edgeLabel;html=1;align=center;verticalAlign=middle;resizable=0;points=[];" connectable="0" vertex="1" parent="ccat_9VGCG8ta8O_mmiu-41">
          <mxGeometry x="0.0555" y="3" relative="1" as="geometry">
            <mxPoint as="offset" />
          </mxGeometry>
        </mxCell>
        <mxCell id="ccat_9VGCG8ta8O_mmiu-114" value="&lt;b&gt;DS3. Users&lt;br&gt;Database&lt;/b&gt;" style="html=1;dashed=0;whitespace=wrap;shape=partialRectangle;right=0;left=0;fillColor=#d5e8d4;strokeColor=#82b366;" vertex="1" parent="1">
          <mxGeometry x="-20" y="1330" width="133.33" height="40" as="geometry" />
        </mxCell>
        <mxCell id="ccat_9VGCG8ta8O_mmiu-116" value="&lt;b&gt;Payment gateway&lt;/b&gt;" style="html=1;dashed=0;whitespace=wrap;fillColor=#ffe6cc;strokeColor=#d79b00;" vertex="1" parent="1">
          <mxGeometry x="690" y="1310" width="160" height="80" as="geometry" />
        </mxCell>
        <mxCell id="ccat_9VGCG8ta8O_mmiu-118" value="&lt;b&gt;DS1. Order Database&lt;/b&gt;" style="html=1;dashed=0;whitespace=wrap;shape=partialRectangle;right=0;left=0;fillColor=#d5e8d4;strokeColor=#82b366;" vertex="1" parent="1">
          <mxGeometry x="350" y="1330" width="133.33" height="40" as="geometry" />
        </mxCell>
        <mxCell id="ccat_9VGCG8ta8O_mmiu-119" value="&lt;b&gt;DS4. Payment Database&lt;/b&gt;" style="html=1;dashed=0;whitespace=wrap;shape=partialRectangle;right=0;left=0;fillColor=#d5e8d4;strokeColor=#82b366;" vertex="1" parent="1">
          <mxGeometry x="870" y="1330" width="133.33" height="40" as="geometry" />
        </mxCell>
        <mxCell id="ccat_9VGCG8ta8O_mmiu-120" value="&lt;b&gt;DS2. Menu Database&lt;/b&gt;" style="html=1;dashed=0;whitespace=wrap;shape=partialRectangle;right=0;left=0;fillColor=#d5e8d4;strokeColor=#82b366;" vertex="1" parent="1">
          <mxGeometry x="531.67" y="1330" width="133.33" height="40" as="geometry" />
        </mxCell>
        <mxCell id="ccat_9VGCG8ta8O_mmiu-122" style="edgeStyle=orthogonalEdgeStyle;orthogonalLoop=1;jettySize=auto;html=1;curved=1;endArrow=block;endFill=1;entryX=0;entryY=0;entryDx=0;entryDy=0;exitX=1;exitY=0.75;exitDx=0;exitDy=0;" edge="1" parent="1" source="ccat_9VGCG8ta8O_mmiu-11" target="ccat_9VGCG8ta8O_mmiu-10">
          <mxGeometry relative="1" as="geometry">
            <mxPoint x="811" y="940" as="sourcePoint" />
            <mxPoint x="520" y="1158" as="targetPoint" />
          </mxGeometry>
        </mxCell>
        <mxCell id="ccat_9VGCG8ta8O_mmiu-123" value="Makes payments" style="edgeLabel;html=1;align=center;verticalAlign=middle;resizable=0;points=[];" connectable="0" vertex="1" parent="ccat_9VGCG8ta8O_mmiu-122">
          <mxGeometry x="-0.4188" y="-2" relative="1" as="geometry">
            <mxPoint as="offset" />
          </mxGeometry>
        </mxCell>
        <mxCell id="ccat_9VGCG8ta8O_mmiu-125" style="edgeStyle=orthogonalEdgeStyle;orthogonalLoop=1;jettySize=auto;html=1;curved=1;endArrow=block;endFill=1;entryX=0.5;entryY=0;entryDx=0;entryDy=0;exitX=0.75;exitY=1;exitDx=0;exitDy=0;" edge="1" parent="1" source="ccat_9VGCG8ta8O_mmiu-11" target="ccat_9VGCG8ta8O_mmiu-9">
          <mxGeometry relative="1" as="geometry">
            <mxPoint x="530" y="940" as="sourcePoint" />
            <mxPoint x="730" y="1160" as="targetPoint" />
          </mxGeometry>
        </mxCell>
        <mxCell id="ccat_9VGCG8ta8O_mmiu-126" value="Makes changes" style="edgeLabel;html=1;align=center;verticalAlign=middle;resizable=0;points=[];" connectable="0" vertex="1" parent="ccat_9VGCG8ta8O_mmiu-125">
          <mxGeometry x="-0.4188" y="-2" relative="1" as="geometry">
            <mxPoint as="offset" />
          </mxGeometry>
        </mxCell>
        <mxCell id="ccat_9VGCG8ta8O_mmiu-127" style="edgeStyle=orthogonalEdgeStyle;orthogonalLoop=1;jettySize=auto;html=1;curved=1;endArrow=block;endFill=1;entryX=1;entryY=0;entryDx=0;entryDy=0;exitX=0.25;exitY=1;exitDx=0;exitDy=0;" edge="1" parent="1" source="ccat_9VGCG8ta8O_mmiu-11" target="ccat_9VGCG8ta8O_mmiu-4">
          <mxGeometry relative="1" as="geometry">
            <mxPoint x="440" y="960" as="sourcePoint" />
            <mxPoint x="488" y="1140" as="targetPoint" />
          </mxGeometry>
        </mxCell>
        <mxCell id="ccat_9VGCG8ta8O_mmiu-128" value="Places order" style="edgeLabel;html=1;align=center;verticalAlign=middle;resizable=0;points=[];" connectable="0" vertex="1" parent="ccat_9VGCG8ta8O_mmiu-127">
          <mxGeometry x="-0.4188" y="-2" relative="1" as="geometry">
            <mxPoint as="offset" />
          </mxGeometry>
        </mxCell>
        <mxCell id="ccat_9VGCG8ta8O_mmiu-129" style="edgeStyle=orthogonalEdgeStyle;orthogonalLoop=1;jettySize=auto;html=1;curved=1;endArrow=block;endFill=1;entryX=0;entryY=0.25;entryDx=0;entryDy=0;exitX=0;exitY=0.5;exitDx=0;exitDy=0;" edge="1" parent="1" source="ccat_9VGCG8ta8O_mmiu-8" target="ccat_9VGCG8ta8O_mmiu-114">
          <mxGeometry relative="1" as="geometry">
            <mxPoint x="8" y="1260" as="sourcePoint" />
            <mxPoint x="-280" y="1478" as="targetPoint" />
          </mxGeometry>
        </mxCell>
        <mxCell id="ccat_9VGCG8ta8O_mmiu-130" value="Verifies credentials/" style="edgeLabel;html=1;align=center;verticalAlign=middle;resizable=0;points=[];" connectable="0" vertex="1" parent="ccat_9VGCG8ta8O_mmiu-129">
          <mxGeometry x="-0.4188" y="-2" relative="1" as="geometry">
            <mxPoint as="offset" />
          </mxGeometry>
        </mxCell>
        <mxCell id="ccat_9VGCG8ta8O_mmiu-131" style="edgeStyle=orthogonalEdgeStyle;orthogonalLoop=1;jettySize=auto;html=1;curved=1;endArrow=block;endFill=1;entryX=0;entryY=0.25;entryDx=0;entryDy=0;exitX=1;exitY=0.5;exitDx=0;exitDy=0;" edge="1" parent="1" source="ccat_9VGCG8ta8O_mmiu-8" target="ccat_9VGCG8ta8O_mmiu-5">
          <mxGeometry relative="1" as="geometry">
            <mxPoint x="158" y="1251" as="sourcePoint" />
            <mxPoint x="-130" y="1469" as="targetPoint" />
          </mxGeometry>
        </mxCell>
        <mxCell id="ccat_9VGCG8ta8O_mmiu-132" value="Verifies user details" style="edgeLabel;html=1;align=center;verticalAlign=middle;resizable=0;points=[];" connectable="0" vertex="1" parent="ccat_9VGCG8ta8O_mmiu-131">
          <mxGeometry x="-0.4188" y="-2" relative="1" as="geometry">
            <mxPoint as="offset" />
          </mxGeometry>
        </mxCell>
        <mxCell id="ccat_9VGCG8ta8O_mmiu-134" style="edgeStyle=orthogonalEdgeStyle;orthogonalLoop=1;jettySize=auto;html=1;curved=1;endArrow=block;endFill=1;entryX=0.25;entryY=0;entryDx=0;entryDy=0;exitX=0;exitY=1;exitDx=0;exitDy=0;" edge="1" parent="1" source="ccat_9VGCG8ta8O_mmiu-8" target="ccat_9VGCG8ta8O_mmiu-114">
          <mxGeometry relative="1" as="geometry">
            <mxPoint x="20" y="1200" as="sourcePoint" />
            <mxPoint x="-20" y="1370" as="targetPoint" />
          </mxGeometry>
        </mxCell>
        <mxCell id="ccat_9VGCG8ta8O_mmiu-135" value="Manages user info" style="edgeLabel;html=1;align=center;verticalAlign=middle;resizable=0;points=[];" connectable="0" vertex="1" parent="ccat_9VGCG8ta8O_mmiu-134">
          <mxGeometry x="-0.4188" y="-2" relative="1" as="geometry">
            <mxPoint as="offset" />
          </mxGeometry>
        </mxCell>
        <mxCell id="ccat_9VGCG8ta8O_mmiu-136" style="edgeStyle=orthogonalEdgeStyle;orthogonalLoop=1;jettySize=auto;html=1;curved=1;endArrow=block;endFill=1;entryX=0.75;entryY=0;entryDx=0;entryDy=0;exitX=0;exitY=1;exitDx=0;exitDy=0;" edge="1" parent="1" source="ccat_9VGCG8ta8O_mmiu-4" target="ccat_9VGCG8ta8O_mmiu-5">
          <mxGeometry relative="1" as="geometry">
            <mxPoint x="385.5" y="1270" as="sourcePoint" />
            <mxPoint x="314.5" y="1471" as="targetPoint" />
          </mxGeometry>
        </mxCell>
        <mxCell id="ccat_9VGCG8ta8O_mmiu-137" value="Verifies order details" style="edgeLabel;html=1;align=center;verticalAlign=middle;resizable=0;points=[];" connectable="0" vertex="1" parent="ccat_9VGCG8ta8O_mmiu-136">
          <mxGeometry x="-0.4188" y="-2" relative="1" as="geometry">
            <mxPoint as="offset" />
          </mxGeometry>
        </mxCell>
        <mxCell id="ccat_9VGCG8ta8O_mmiu-138" style="edgeStyle=orthogonalEdgeStyle;orthogonalLoop=1;jettySize=auto;html=1;curved=1;endArrow=block;endFill=1;entryX=0.25;entryY=0;entryDx=0;entryDy=0;exitX=0.5;exitY=1;exitDx=0;exitDy=0;" edge="1" parent="1" source="ccat_9VGCG8ta8O_mmiu-4" target="ccat_9VGCG8ta8O_mmiu-118">
          <mxGeometry relative="1" as="geometry">
            <mxPoint x="370" y="1250" as="sourcePoint" />
            <mxPoint x="383.5" y="1502" as="targetPoint" />
          </mxGeometry>
        </mxCell>
        <mxCell id="ccat_9VGCG8ta8O_mmiu-139" value="Stores orders" style="edgeLabel;html=1;align=center;verticalAlign=middle;resizable=0;points=[];" connectable="0" vertex="1" parent="ccat_9VGCG8ta8O_mmiu-138">
          <mxGeometry x="-0.4188" y="-2" relative="1" as="geometry">
            <mxPoint as="offset" />
          </mxGeometry>
        </mxCell>
        <mxCell id="ccat_9VGCG8ta8O_mmiu-140" style="edgeStyle=orthogonalEdgeStyle;orthogonalLoop=1;jettySize=auto;html=1;curved=1;endArrow=block;endFill=1;entryX=0;entryY=0.25;entryDx=0;entryDy=0;exitX=1;exitY=0.5;exitDx=0;exitDy=0;" edge="1" parent="1" source="ccat_9VGCG8ta8O_mmiu-4" target="ccat_9VGCG8ta8O_mmiu-120">
          <mxGeometry relative="1" as="geometry">
            <mxPoint x="440" y="1235" as="sourcePoint" />
            <mxPoint x="453.5" y="1487" as="targetPoint" />
          </mxGeometry>
        </mxCell>
        <mxCell id="ccat_9VGCG8ta8O_mmiu-141" value="Retreives menu items" style="edgeLabel;html=1;align=center;verticalAlign=middle;resizable=0;points=[];" connectable="0" vertex="1" parent="ccat_9VGCG8ta8O_mmiu-140">
          <mxGeometry x="-0.4188" y="-2" relative="1" as="geometry">
            <mxPoint as="offset" />
          </mxGeometry>
        </mxCell>
        <mxCell id="ccat_9VGCG8ta8O_mmiu-142" style="edgeStyle=orthogonalEdgeStyle;orthogonalLoop=1;jettySize=auto;html=1;curved=1;endArrow=block;endFill=1;exitX=1;exitY=1;exitDx=0;exitDy=0;" edge="1" parent="1" source="ccat_9VGCG8ta8O_mmiu-9" target="ccat_9VGCG8ta8O_mmiu-120">
          <mxGeometry relative="1" as="geometry">
            <mxPoint x="530" y="1265" as="sourcePoint" />
            <mxPoint x="642" y="1435" as="targetPoint" />
          </mxGeometry>
        </mxCell>
        <mxCell id="ccat_9VGCG8ta8O_mmiu-143" value="Updates menu" style="edgeLabel;html=1;align=center;verticalAlign=middle;resizable=0;points=[];" connectable="0" vertex="1" parent="ccat_9VGCG8ta8O_mmiu-142">
          <mxGeometry x="-0.4188" y="-2" relative="1" as="geometry">
            <mxPoint as="offset" />
          </mxGeometry>
        </mxCell>
        <mxCell id="ccat_9VGCG8ta8O_mmiu-144" style="edgeStyle=orthogonalEdgeStyle;orthogonalLoop=1;jettySize=auto;html=1;curved=1;endArrow=block;endFill=1;entryX=0.75;entryY=0;entryDx=0;entryDy=0;exitX=1;exitY=0.5;exitDx=0;exitDy=0;" edge="1" parent="1" source="ccat_9VGCG8ta8O_mmiu-10" target="ccat_9VGCG8ta8O_mmiu-119">
          <mxGeometry relative="1" as="geometry">
            <mxPoint x="950" y="1200" as="sourcePoint" />
            <mxPoint x="1062" y="1370" as="targetPoint" />
          </mxGeometry>
        </mxCell>
        <mxCell id="ccat_9VGCG8ta8O_mmiu-146" value="Updates payment records" style="edgeLabel;html=1;align=center;verticalAlign=middle;resizable=0;points=[];" connectable="0" vertex="1" parent="ccat_9VGCG8ta8O_mmiu-144">
          <mxGeometry x="0.2055" y="-3" relative="1" as="geometry">
            <mxPoint as="offset" />
          </mxGeometry>
        </mxCell>
        <mxCell id="ccat_9VGCG8ta8O_mmiu-147" style="edgeStyle=orthogonalEdgeStyle;orthogonalLoop=1;jettySize=auto;html=1;curved=1;endArrow=block;endFill=1;exitX=0;exitY=0.5;exitDx=0;exitDy=0;entryX=0.191;entryY=-0.011;entryDx=0;entryDy=0;entryPerimeter=0;" edge="1" parent="1" source="ccat_9VGCG8ta8O_mmiu-10" target="ccat_9VGCG8ta8O_mmiu-116">
          <mxGeometry relative="1" as="geometry">
            <mxPoint x="757" y="1195" as="sourcePoint" />
            <mxPoint x="710" y="1310" as="targetPoint" />
          </mxGeometry>
        </mxCell>
        <mxCell id="ccat_9VGCG8ta8O_mmiu-148" value="Transmits payment" style="edgeLabel;html=1;align=center;verticalAlign=middle;resizable=0;points=[];" connectable="0" vertex="1" parent="ccat_9VGCG8ta8O_mmiu-147">
          <mxGeometry x="-0.4188" y="-2" relative="1" as="geometry">
            <mxPoint as="offset" />
          </mxGeometry>
        </mxCell>
        <mxCell id="ccat_9VGCG8ta8O_mmiu-149" style="edgeStyle=orthogonalEdgeStyle;orthogonalLoop=1;jettySize=auto;html=1;curved=1;endArrow=block;endFill=1;exitX=0.75;exitY=0;exitDx=0;exitDy=0;entryX=0.694;entryY=0.972;entryDx=0;entryDy=0;entryPerimeter=0;" edge="1" parent="1" source="ccat_9VGCG8ta8O_mmiu-116" target="ccat_9VGCG8ta8O_mmiu-10">
          <mxGeometry relative="1" as="geometry">
            <mxPoint x="817" y="1250" as="sourcePoint" />
            <mxPoint x="770" y="1365" as="targetPoint" />
          </mxGeometry>
        </mxCell>
        <mxCell id="ccat_9VGCG8ta8O_mmiu-150" value="Confirms payment" style="edgeLabel;html=1;align=center;verticalAlign=middle;resizable=0;points=[];" connectable="0" vertex="1" parent="ccat_9VGCG8ta8O_mmiu-149">
          <mxGeometry x="-0.4188" y="-2" relative="1" as="geometry">
            <mxPoint as="offset" />
          </mxGeometry>
        </mxCell>
        <mxCell id="ccat_9VGCG8ta8O_mmiu-153" value="&lt;h1&gt;DFD Level 1&lt;/h1&gt;" style="text;html=1;strokeColor=none;fillColor=none;spacing=5;spacingTop=-20;whiteSpace=wrap;overflow=hidden;rounded=0;" vertex="1" parent="1">
          <mxGeometry x="-90" y="870" width="190" height="120" as="geometry" />
        </mxCell>
      </root>
    </mxGraphModel>
  </diagram>
</mxfile>
